<svg xmlns="http://www.w3.org/2000/svg" xmlns:xlink="http://www.w3.org/1999/xlink" version="1.1" x="0px" y="0px" viewBox="0 0 100 125" style="enable-background:new 0 0 100 100;" xml:space="preserve"><style type="text/css">
	.st0{fill:none;stroke:#000000;stroke-width:2;stroke-linecap:round;stroke-linejoin:round;stroke-miterlimit:10;}
	.st1{fill:none;stroke:#000000;stroke-linecap:round;stroke-linejoin:round;stroke-miterlimit:10;}
	.st2{fill:none;stroke:#000000;stroke-width:2;stroke-miterlimit:10;}
</style><path d="M86.2,12.6h-6c-1.7,0-3.1,1.4-3.1,3.1v70c0,1.7,1.4,3.1,3.1,3.1h6c1.7,0,3.1-1.4,3.1-3.1v-70C89.2,14,87.9,12.6,86.2,12.6z   M79.1,29.7h8.1v41.9h-8.1V29.7z M87.2,27.7h-8.1v-4.2h8.1V27.7z M79.1,73.7h8.1v4.2h-8.1V73.7z M80.2,14.6h6c0.6,0,1.1,0.5,1.1,1.1  v5.9h-8.1v-5.9C79.1,15.1,79.6,14.6,80.2,14.6z M86.2,86.7h-6c-0.6,0-1.1-0.5-1.1-1.1v-5.8h8.1v5.8C87.2,86.2,86.8,86.7,86.2,86.7z"/><path d="M66.7,12.6c-1.7,0-3.1,1.4-3.1,3.1v70c0,1.7,1.4,3.1,3.1,3.1h6c1.7,0,3.1-1.4,3.1-3.1v-70c0-1.7-1.4-3.1-3.1-3.1H66.7z   M73.8,71.7h-8.1V29.7h8.1V71.7z M65.7,73.7h8.1v4.2h-8.1V73.7z M73.8,27.7h-8.1v-4.2h8.1V27.7z M72.7,86.7h-6  c-0.6,0-1.1-0.5-1.1-1.1v-5.8h8.1v5.8C73.8,86.2,73.3,86.7,72.7,86.7z M73.8,15.7v5.9h-8.1v-5.9c0-0.6,0.5-1.1,1.1-1.1h6  C73.3,14.6,73.8,15.1,73.8,15.7z"/><path d="M40.7,12.6c-1.7,0-3.1,1.4-3.1,3.1v70c0,1.7,1.4,3.1,3.1,3.1h18.6c1.7,0,3.1-1.4,3.1-3.1v-70c0-1.7-1.4-3.1-3.1-3.1H40.7z   M60.4,71.7H39.7V29.7h20.7V71.7z M39.7,73.7h20.7v4.2H39.7V73.7z M60.4,27.7H39.7v-4.2h20.7V27.7z M59.3,86.7H40.7  c-0.6,0-1.1-0.5-1.1-1.1v-5.8h20.7v5.8C60.4,86.2,59.9,86.7,59.3,86.7z M60.4,15.7v5.9H39.7v-5.9c0-0.6,0.5-1.1,1.1-1.1h18.6  C59.9,14.6,60.4,15.1,60.4,15.7z"/><path d="M13.9,88.7h18.6c1.7,0,3.1-1.4,3.1-3.1v-70c0-1.7-1.4-3.1-3.1-3.1H13.9c-1.7,0-3.1,1.4-3.1,3.1v70  C10.8,87.3,12.2,88.7,13.9,88.7z M33.5,71.7H12.8V29.7h20.7V71.7z M12.8,73.7h20.7v4.2H12.8V73.7z M33.5,27.7H12.8v-4.2h20.7V27.7z   M32.5,86.7H13.9c-0.6,0-1.1-0.5-1.1-1.1v-5.8h20.7v5.8C33.5,86.2,33,86.7,32.5,86.7z M13.9,14.6h18.6c0.6,0,1.1,0.5,1.1,1.1v5.9  H12.8v-5.9C12.8,15.1,13.3,14.6,13.9,14.6z"/><path d="M50,62.3c4.4,0,8.1-5.2,8.1-11.6S54.5,39.1,50,39.1S42,44.3,42,50.7S45.6,62.3,50,62.3z M50,41.1c3.3,0,6.1,4.4,6.1,9.6  c0,5.2-2.8,9.6-6.1,9.6S44,55.9,44,50.7C44,45.5,46.7,41.1,50,41.1z"/></svg>