<svg xmlns="http://www.w3.org/2000/svg" xmlns:xlink="http://www.w3.org/1999/xlink" version="1.1" x="0px" y="0px" viewBox="0 0 100 125" style="enable-background:new 0 0 100 100;" xml:space="preserve">
<style type="text/css">
	.st0{fill:none;stroke:#000000;stroke-width:2;stroke-linecap:round;stroke-linejoin:round;stroke-miterlimit:10;}
	.st1{fill:none;stroke:#000000;stroke-linecap:round;stroke-linejoin:round;stroke-miterlimit:10;}
	.st2{fill:none;stroke:#000000;stroke-width:2;stroke-miterlimit:10;}
</style>
<path d="M11.7,90.3h76.6c0.6,0,1-0.4,1-1V84c0-0.6-0.4-1-1-1h-1.9v-5c0-0.6-0.4-1-1-1h-3.9V44.3h3.9c0.6,0,1-0.4,1-1v-6.8  c0-0.6-0.4-1-1-1h-2.9c0,0,0,0-0.1-0.1L50.6,10.4c-0.4-0.3-0.9-0.3-1.2,0L17.6,35.4c0,0,0,0-0.1,0.1h-3c-0.6,0-1,0.4-1,1v6.8  c0,0.6,0.4,1,1,1h3.9V77h-3.8c-0.6,0-1,0.4-1,1v5h-1.9c-0.6,0-1,0.4-1,1v5.3C10.7,89.9,11.2,90.3,11.7,90.3z M79.5,77h-6.2V44.3h6.2  V77z M44.7,44.3V77H28.7V44.3H44.7z M46.7,44.3H53V77h-6.2V44.3z M55,44.3h16.2V77H55V44.3z M50,12.4l29.3,23.1H20.7L50,12.4z   M15.5,37.5h68.8v4.8H15.5V37.5z M20.4,44.3h6.2V77h-6.2V44.3z M15.6,79h68.8v4H15.6V79z M12.7,85h74.6v3.3H12.7V85z"/></svg>