<svg xmlns="http://www.w3.org/2000/svg" xmlns:xlink="http://www.w3.org/1999/xlink" version="1.1" x="0px" y="0px" viewBox="0 0 100 125" style="enable-background:new 0 0 100 100;" xml:space="preserve"><style type="text/css">
	.st0{fill:none;stroke:#000000;stroke-width:2;stroke-linecap:round;stroke-linejoin:round;stroke-miterlimit:10;}
	.st1{fill:none;stroke:#000000;stroke-linecap:round;stroke-linejoin:round;stroke-miterlimit:10;}
	.st2{fill:none;stroke:#000000;stroke-width:2;stroke-miterlimit:10;}
</style><path d="M82.9,77.8H65c-2.5,0-4.5,1.9-4.6,4.4h-1.6c-0.6,0-1,0.4-1,1v5.8c0,0.6,0.4,1,1,1h29.9c0.6,0,1-0.4,1-1v-5.8  c0-0.6-0.4-1-1-1h-1.3C87.3,79.7,85.3,77.8,82.9,77.8z M65,79.8h17.8c1.4,0,2.5,1.1,2.6,2.4h-23C62.6,80.8,63.7,79.8,65,79.8z   M87.8,87.9H59.8v-3.8h27.9V87.9z"/><path d="M16.2,78c0.2,0,0.5,0,0.7,0c1.4,0,2.7-0.5,3.8-1.4l40-32.6l3.4,4.5c-1.2,1.2-1.4,3.2-0.4,4.6c0.6,0.7,1.4,1.2,2.3,1.4  c0.2,0,0.3,0,0.5,0c0.8,0,1.5-0.2,2.1-0.7L86.7,40c1.5-1.2,1.8-3.4,0.7-4.9c-0.6-0.7-1.4-1.2-2.3-1.4c-0.8-0.1-1.6,0.1-2.2,0.5  L70.2,17.7c0.6-0.5,0.9-1.2,1-2c0.1-0.9-0.1-1.9-0.7-2.6c-1.2-1.5-3.4-1.8-4.9-0.7L47.6,26.2c-0.7,0.6-1.2,1.4-1.4,2.3  c-0.1,0.9,0.1,1.9,0.7,2.6c0.6,0.7,1.4,1.2,2.3,1.4c0.2,0,0.3,0,0.5,0c0.6,0,1.2-0.2,1.8-0.5L56,38L13.5,67.2  c-1.3,0.9-2.2,2.3-2.5,3.9s0.1,3.2,1.1,4.5C13.1,77,14.5,77.8,16.2,78z M53.1,30.8l15.6-11.9l12.5,16.4L65.5,47.2L53.1,30.8z   M84.5,35.7c0.1,0,0.1,0,0.2,0c0.4,0.1,0.8,0.3,1,0.6c0.5,0.7,0.4,1.6-0.3,2.1L67.3,52.2c-0.3,0.2-0.7,0.3-1.1,0.3  c-0.4-0.1-0.8-0.3-1-0.6c-0.5-0.7-0.4-1.6,0.3-2.1L83.6,36C83.9,35.8,84.2,35.7,84.5,35.7z M49.5,30.4c-0.4-0.1-0.8-0.3-1-0.6  s-0.3-0.7-0.3-1.1c0.1-0.4,0.3-0.8,0.6-1L66.9,14c0.3-0.2,0.6-0.3,0.9-0.3c0.5,0,0.9,0.2,1.2,0.6c0.2,0.3,0.3,0.7,0.3,1.1  c-0.1,0.4-0.3,0.8-0.6,1c0,0,0,0,0,0L50.6,30.2C50.3,30.4,49.9,30.5,49.5,30.4z M13,71.5c0.2-1.1,0.8-2,1.6-2.6l42.7-29.3l2.1,2.8  l-40,32.7c-0.8,0.7-1.9,1-2.9,0.9c-1.1-0.1-2-0.7-2.7-1.5S12.8,72.6,13,71.5z"/></svg>