<svg xmlns="http://www.w3.org/2000/svg" xmlns:xlink="http://www.w3.org/1999/xlink" version="1.1" x="0px" y="0px" viewBox="0 0 100 125" style="enable-background:new 0 0 100 100;" xml:space="preserve"><style type="text/css">
	.st0{fill:none;stroke:#000000;stroke-width:2;stroke-linecap:round;stroke-linejoin:round;stroke-miterlimit:10;}
	.st1{fill:none;stroke:#000000;stroke-linecap:round;stroke-linejoin:round;stroke-miterlimit:10;}
	.st2{fill:none;stroke:#000000;stroke-width:2;stroke-miterlimit:10;}
</style><path d="M90.1,64.8h-2.6l-8.6-37.8c2.5,0.8,4.7,1.1,6.3,1.1c2.4,0,3.7-0.5,3.8-0.6c0.5-0.2,0.7-0.8,0.5-1.3  c-0.2-0.5-0.8-0.8-1.3-0.6c-0.1,0-5.7,2.1-15.3-3.6c-10-6-18.8-6.1-21.9-5.9v-3.4c0-0.6-0.4-1-1-1s-1,0.4-1,1v3.4  c-3.1-0.2-11.9-0.1-21.9,5.9c-9.6,5.7-15.2,3.6-15.3,3.6c-0.5-0.2-1.1,0-1.3,0.5c-0.2,0.5,0,1.1,0.5,1.3c0.1,0,1.4,0.6,3.8,0.6  c1.6,0,3.7-0.2,6.3-1.1l-8.6,37.8H9.9c-0.6,0-1,0.4-1,1c0,2.6,2.1,4.6,4.6,4.6h17.8c2.6,0,4.6-2.1,4.6-4.6c0-0.6-0.4-1-1-1h-2.6  l-8.8-38.7c1.4-0.6,2.9-1.3,4.5-2.3c9.5-5.7,18.2-5.8,20.9-5.6v60h-7.7c-2.5,0-4.5,1.9-4.6,4.4H35c-0.6,0-1,0.4-1,1v5.8  c0,0.6,0.4,1,1,1H65c0.6,0,1-0.4,1-1v-5.8c0-0.6-0.4-1-1-1h-1.3c-0.1-2.4-2.1-4.4-4.6-4.4H51v-60c2.7-0.2,11.3-0.1,20.9,5.6  c1.6,1,3.1,1.7,4.5,2.3l-8.8,38.7H65c-0.6,0-1,0.4-1,1c0,2.6,2.1,4.6,4.6,4.6h17.8c2.6,0,4.6-2.1,4.6-4.6  C91.1,65.3,90.6,64.8,90.1,64.8z M31.4,68.5H13.6c-1.1,0-2-0.7-2.4-1.6h22.7C33.4,67.8,32.5,68.5,31.4,68.5z M14.5,64.8l7.9-34.7  l7.9,34.7H14.5z M64,88.4H36v-3.8H64V88.4z M59.1,80.3c1.4,0,2.5,1.1,2.6,2.4h-23c0.1-1.3,1.2-2.4,2.6-2.4H59.1z M77.5,30.1  l7.9,34.7H69.6L77.5,30.1z M86.4,68.5H68.6c-1.1,0-2-0.7-2.4-1.6h22.7C88.5,67.8,87.5,68.5,86.4,68.5z"/></svg>